<svg xmlns="http://www.w3.org/2000/svg" width="1228" height="757" fill="none"><path stroke="#000" stroke-linecap="round" stroke-width="3" d="M24 107c0 13.753-3.044 27.463-3.778 41.222-.835 15.652-1.427 32.652.778 48.222 2.214 15.638.958 31.933-.778 47.556-2.245 20.21-.033 40.588-2.666 60.778-1.68 12.87-4.95 25.431-6.778 38.222-1.168 8.176-6.42 15.556-6.778 23.778-.25 5.742-2 11.519-2 17.222v3-37.444c0-14.904 2-29.146 2-44.112 0-17.357.997-33.779 4-50.888 2.319-13.212 2.963-25.976 6.222-38.889 2.968-11.756 4.594-23.768 7.778-35.445 3.188-11.69 5-25.304 5-37.444v-20.111c0-2.606-1.038-5.667 2.222-5.667H46c14.718 0 25.8 5.93 39.222 11 7.239 2.734 21.785 9.458 25.556 17 1.381 2.763.222 8.701.222 11.778 0 3.885.946 9.203-.222 13-1.214 3.944-4.762 6.278-6 10.666-2.23 7.906-7.325 16.484-12.722 22.556-7.346 8.264-16.88 13.219-26 19.389-11.901 8.05-25.163 17.657-38.723 22.333-6.713 2.315-13.824 3.272-20.722 4.334-1.62.249-6.19.944-2.111.944 19.593 0 38.271 1.67 57.056 7.5 8.022 2.49 14.67 5.978 18.888 13.611 6.76 12.231 9.115 24.671 10.945 38.5 2.858 21.593-2.532 43.804 6.667 64.5 1.354 3.047 3.003 10.837 5.5 13.333 3.627 3.628 18.224-3.998 21.611-5.611 17.202-8.191 32.828-17.829 44.944-32.611 7.485-9.131 13.492-19.157 21.778-27.666 3.729-3.83 7.458-7.599 11.055-11.556 3.005-3.305 4.263-7.904 5.112-2.389.871 5.665 2.316 11.023 2.722 16.833.401 5.751-.037 11.336 1.222 17 2.238 10.073 4.661 20.061 7.444 30 .999 3.566-1.001 7.348 3.389 8.056 13.618 2.196 29.408-4.238 41.834-8.944 17.102-6.479 45.833-12.885 49.722-34.056 1.359-7.397.646-15.471.611-22.944-.055-11.732-.377-23.384-2.5-34.945-1.876-10.211-3.61-21.1-8-30.555-6.804-14.655-18.503-25.691-34.056-30.723-8.662-2.802-12.904.193-20.944 2.667-16.318 5.021-25.177 17.958-29.333 34.167-2.541 9.909-6.732 19.072-7.111 29.5-.312 8.573-.056 17.196-.056 25.777 0 18.621.885 36.658 4 55 1.872 11.022.893 26.062 9.222 34.778 6.592 6.899 15.545 8.826 25 7.556 30.57-4.107 44.359-31.594 48.778-59.334 2.538-15.932 4.793-33.31 5-49.444.131-10.211-1-20.419-1-30.667 0-8.864-1-17.462-1-26.333 0-5.208 1.863 10.251 3 15.333 3.603 16.106 9.227 32.114 12 48.334 5.076 29.692 13 58.879 13 89.111V408c0 4.278-.141 2.055-1.222 0-1.19-2.26-3.178-3.301-3.778-6-.893-4.019-1-7.761-1-11.889 0-10.029-1.075-20.942.222-30.889.98-7.51 1.778-15.913 3.556-23.222.867-3.566 3.083-8.167 3.222-11.778.081-2.108-.644-5.273.222-7.222 1.826-4.108 4.81-7.595 6-12 .827-3.059 1.778-7.064 1.778-10.222 0-4.233 2.792-5.833 3.778-9.667 1.712-6.658 4.594-12.746 7-19.222 3.342-9 3.817-18.634 6.444-27.778 6.743-23.466 12.389-47.599 17.556-71.444 4.309-19.887 7.596-41.327 9.222-61.556 1.071-13.327.162-27.427 3-40.555 3.053-14.122-.766-29.6 3-43.334.305-1.113 4.277-18.778 3-18.778-2.312 0-6.724 21.767-6.889 22.334-8.388 28.891-14.776 58.881-20.889 88.333-3.943 18.997-2.747 39.41-3.278 58.778-.895 32.676-6.775 64.742-8.944 97.278-2.346 35.191-2.443 71.24 2.611 106.055 2.064 14.218 8.389 27.78 8.389 42.111 0 20.225-1-40.441-1-60.666 0-9.074-.752-18.412 1.222-27.334 1.616-7.304 3.645-14.519 5.222-21.833 3.317-15.375 5.447-31.01 9.112-46.333 2.492-10.424 5.839-21.112 15.5-26.667 9.331-5.365 21.059-9.896 32-10.333 10.843-.434 22.137 2.111 27.888 11.889 11.941 20.299 2.854 50.804-4.388 71.166-5.364 15.08-11.962 28.673-14.556 44.667-2.242 13.827-1 28.379-1 42.333 0 5.537-.738 9.308 3 13.556 2.019 2.294 8.381 1.367 11.222 1.722 5.019.627 10.065.5 15.111.5 32.97 0 43.428-38.909 45.445-66.222 1.736-23.513.554-47.963.222-71.556-.087-6.192-1.618-12.09-2.056-18.222-.074-1.049-.299-4.91-1.166-5.778-.455-.455-.787 10.158-.778 10.778.229 16.476 1 32.933 1 49.444 0 21.729 3.441 43.38 10.444 64 6.786 19.98 36.418 25.071 53.334 15.556 5.112-2.876 10.867-5.321 14.778-9.833 5.995-6.918 10.033-16.477 12.222-25.278 6.699-26.944 11.881-55.175 14.611-82.778.568-5.746.611-11.458.611-17.222v2.778c0 15.339-4.258 30.682-6.389 45.833-3.527 25.082-1.611 51.122-1.611 76.389 0 3.374-1.522 11.093 1.556 13.611 3.292 2.694 11.669 5.5 15.944 5.5 5.772 0 11.257-.832 17-1.5 4.364-.507 8.668-.5 13.056-.5 3.844 0 3.327-5.792 4.111-8.667 5.412-19.845 15.131-38.583 20.889-58.389 5.695-19.591 13.104-40.008 14.388-60.555.728-11.646-1.198-23.992-2-35.611-.256-3.725-1.944-7.695-1.944-11.334v2.612c0 11.827 5.147 25.589 8 37 7.597 30.387 16.72 60.28 20.5 91.277 2.164 17.749 1.5 35.749 1.5 53.611v6.278c0 4.237 1.272-9.876 1.444-11.333 1.903-16.036.556-32.729.556-48.889 0-13.313 1.041-27.35-2.5-40.333-1.161-4.258-3.318-8.422-3.5-12.889-.212-5.184.04-10.317-.5-15.5-.876-8.408-2.934-16.273-2.444-24.834.706-12.354 12.004-20.257 22.166-25.111 8.519-4.068 19.404-2.333 28.667-2.333 6.813 0 11.266 4.097 14.611 9.5 11.952 19.308 10.208 45.45 9.444 67.222-.461 13.162-5.409 25.453-6 38.445-.39 8.597-1.465 17.068-.888 25.722.491 7.373 4.846 13.081 6.5 20.167 1.33 5.702 3.805 12.754 9.444 15.722 6.243 3.286 17.006-4.115 22-6.778 6.991-3.729 13.927-8.267 18.778-14.556 2.159-2.799 2.222-8.381 2.222-2.444 0 4.4-.389 8.984.222 13.333.765 5.436 5.027 20.159 11.778 21.445 4.84.922 11.592-2.368 15.778-4.5 7.901-4.025 16.989-9.278 23.444-15.389 20.382-19.294 24.988-53.36 23.556-80.222-.843-15.806-2.106-33.549-12.111-46.556-4.241-5.513-8.247-9.111-15.111-9.111-9.349 0-18.231.118-27.445 2-8.898 1.818-16.494 2.667-21.111 10.778-7.095 12.464-10.787 28.729-13.222 42.778-3.575 20.624.328 44.313 8.444 63.666 7.04 16.788 13.764 35.085 31.334 43.556 10.291 4.962 24.525 1.13 33-5.778 15.908-12.969 22.039-34.615 24.444-54.111 1.694-13.73 1.708-28.382-.222-42.111-1.717-12.209-4.649-23.617-4.778-36.111-.071-6.857-1.367-13.317-2.556-20-.257-1.447-.444-14.994-.444-8.889 0 2.347-.494 4.228-1 6.555-1.933 8.89-1.711 18.295-2.222 27.334A1102.194 1102.194 0 0 0 907 354.111c0 8.516-2.288 21.289 1.222 29.333 3.122 7.154 6.365 17.399 6.778 25.112.803 14.986 21.298 10.444 31.556 10.444 4.06 0 4.138-2.427 5.777-6.389 5.969-14.425 12.116-28.773 17.889-43.278 7.748-19.465 16.92-39.584 20.334-60.444 2.575-15.738.444-33.365.444-49.333 0-11.6-.715-22.941-1.444-34.5-.792-12.551-2.504-24.867-3.445-37.334-.792-10.499-2.72-20.938-3.055-31.5-.404-12.699.01-24.772-3.445-37.055-2.481-8.822-.611-20.665-.611-29.89 0-6.338-.626-13.012.111-19.277C980.57 57.596 989 46.877 989 34.222v17.5c0 29.999 1.972 59.167 4.444 89.056 1.935 23.384 3.709 46.879 6.112 70.222 3.224 31.297 2.804 62.611 1.504 94-.89 21.338-4.06 42.2-4.06 63.667v20.777c0 4.059.362 8.31-.222 12.334-.371 2.553-1.778 4.677-1.778 7.278 0 5.987.109-9.947.333-11.445 5.137-34.214 10.267-68.404 15.227-102.667 2.84-19.632 12.86-33.608 21.72-50.722 5.29-10.22 8.53-21.244 19.61-26.166 13.65-6.068 32.39-1.497 44.61 5.944 1.56.952 13.14 6 11 6-3.65 0-5.62-1.34-8.94-1.944-4.4-.8-7.37-4.587-11.5-5-8.11-.811-16.2-2.056-24.39-2.056-18.73 0-30.12 10.558-42.73 23.167-8.92 8.926-17.68 19.269-22.273 31.222-2.847 7.4-5.465 14.679-10.223 21.167C983.72 301.635 981 306.607 981 313c0 4.367-1.826 13.174 1.556 16.556C994.89 341.89 1013.37 344 1030 344c9.19 0 17.28.395 26.33 2.444 7.47 1.692 15.18 5.43 22.67 6.5 1.1.157 4.1-.547 4.78.5 3.51 5.425 5.95 10.1 6.22 16.778.2 5.068 5.34 8.292 7.22 13 1.09 2.721 3.28 5.081 4.56 7.778 1.23 2.603 1.22 11.436 1.22 8.556 0-1.227-.28-2.813.06-4 .58-2.044 21.6-1.295 23.5-1.334 17.93-.37 37.05 2.905 53.83 9.222 14.84 5.589 32.41 13.099 43.17 25.334 10.63 12.1-15.19 11.563-20.89 12.778-43.56 9.273-87.06 18.156-130.11 29.666-24.57 6.569-49.06 13.349-74.171 17.611-49.845 8.461-100.548 13.093-150.833 18.111-46.302 4.622-92.593 7.188-139.112 7.834A2405.36 2405.36 0 0 1 675 515c-2.105 0-4.281.248-6.222-.722-6.035-3.017-11.434-7.783-16.778-11.834-14.285-10.827-28.089-21.709-41.667-33.388-10.8-9.291-23.443-16.012-35-24.278-17.701-12.662-39.765-28.05-62.111-30.222-57.314-5.573-111.509 14.372-166.889 24.833-48.057 9.078-95.953 19.3-143.444 31.055-14.221 3.521-29.972 5.646-43.556 11.278-17 7.049-27.967 27.533-35.055 43.389-9.983 22.329-9.035 51.114 4.555 71.5 9.748 14.622 28.879 15.551 45.056 16.722 32.49 2.354 65.454-.152 97.944-1.333 34.338-1.249 68.171-5.618 102.389-8.333 48.931-3.883 96.617-.581 145.222 6.222 25.061 3.507 50.023 8.006 74.667 13.778 24.449 5.726 47.821 14.504 71.667 22.222 15.664 5.07 34.717 7.16 48.222 17.111 1.021.752 10.737 9.329 4.889 11-11.901 3.4-24.798 4.658-37 6.333-51.72 7.101-105.008 5.398-157 2.945-49.556-2.339-99.892-9.585-149.556-6.834-21.186 1.174-42.78 5.894-62 15.112-10.226 4.904-20.908 11.756-21.777 24.222-1.05 15.048 14.314 27.067 27.222 31.333 26.332 8.704 58.055 7.374 85.055 7.889 62.089 1.185 124.205-.761 186.278-1.944 62.946-1.201 125.589-2.057 188.222-8.723 32.99-3.511 65.501-6.744 98.667-5.333"/></svg>